<svg width="20" height="20" viewBox="0 0 20 20" fill="none" xmlns="http://www.w3.org/2000/svg">
<path d="M9.98805 0C11.374 0 12.6722 0.262843 13.8829 0.78853C15.0936 1.31422 16.1529 2.02708 17.0609 2.92712C17.9689 3.82716 18.6858 4.88252 19.2115 6.09319C19.7372 7.30386 20 8.60215 20 9.98805C20 11.374 19.7372 12.6722 19.2115 13.8829C18.6858 15.0936 17.9689 16.1529 17.0609 17.0609C16.1529 17.9689 15.0936 18.6858 13.8829 19.2115C12.6722 19.7372 11.374 20 9.98805 20C8.60215 20 7.30386 19.7372 6.09319 19.2115C4.88252 18.6858 3.82716 17.9689 2.92712 17.0609C2.02708 16.1529 1.31422 15.0936 0.78853 13.8829C0.262843 12.6722 0 11.374 0 9.98805C0 8.60215 0.262843 7.30386 0.78853 6.09319C1.31422 4.88252 2.02708 3.82716 2.92712 2.92712C3.82716 2.02708 4.88252 1.31422 6.09319 0.78853C7.30386 0.262843 8.60215 0 9.98805 0ZM6.88172 7.50299H4.37276V15.6272H6.88172V7.50299ZM5.61529 6.85783C5.96575 6.85783 6.26444 6.73835 6.51135 6.4994C6.75826 6.26045 6.88172 5.96575 6.88172 5.61529C6.88172 5.26483 6.75826 4.97013 6.51135 4.73118C6.26444 4.49223 5.96575 4.37276 5.61529 4.37276C5.26483 4.37276 4.97013 4.49223 4.73118 4.73118C4.49223 4.97013 4.37276 5.26483 4.37276 5.61529C4.37276 5.96575 4.49223 6.26045 4.73118 6.4994C4.97013 6.73835 5.26483 6.85783 5.61529 6.85783ZM15.6272 10.92C15.6272 10.3465 15.4679 9.78495 15.1493 9.23536C14.8307 8.68578 14.4166 8.26762 13.9068 7.98088C13.4448 7.72601 12.9072 7.5906 12.2939 7.57467C11.6806 7.55874 11.1191 7.66229 10.6093 7.8853V7.50299H8.12425V15.6272H10.6093V10.6571L11.6607 10.1553C11.7881 10.0916 11.9594 10.0597 12.1744 10.0597C12.3895 10.0597 12.5607 10.0996 12.6882 10.1792C12.7838 10.227 12.8793 10.3305 12.9749 10.4898C13.0705 10.6491 13.1183 10.7925 13.1183 10.92V15.6272H15.6272V10.92Z" fill="black"/>
</svg>
